<svg xmlns="http://www.w3.org/2000/svg" width="61.747" height="62.244" viewBox="0 0 61.747 62.244">
  <g id="doc_icon" data-name="doc icon" transform="translate(0.956 1)">
    <path id="Path" d="M26.7,0H15.472S-.9,1.642,2.571,17.633c0,0-3.158.725-2.475,3.783S1.23,26.708,1.23,26.708A3.39,3.39,0,0,0,4.1,28.866s3.659,10.492,12.25,10.492S29.288,28.866,29.288,28.866A3.972,3.972,0,0,0,32.6,26.708a20.1,20.1,0,0,0,1.216-5.292s-.558-3.783-2.542-3.783c0,0,2.774-9.733-4.575-13.125" transform="translate(12.984 0)" fill="none" stroke="#3585bc" stroke-linecap="round" stroke-miterlimit="10" stroke-width="2"/>
    <path id="Path-2" data-name="Path" d="M0,0A4.726,4.726,0,0,0,4.542,2.708h7.067a4.391,4.391,0,0,1,4.058,2.725" transform="translate(23.406 7.875)" fill="none" stroke="#3585bc" stroke-linecap="round" stroke-miterlimit="10" stroke-width="2"/>
    <path id="Path-3" data-name="Path" d="M.1,20.517S-1.061,10.009,11.514,5.767C16.231,3.092,17.439,0,17.439,0l8.633,20.517" transform="translate(0 39.358)" fill="none" stroke="#3585bc" stroke-linecap="round" stroke-miterlimit="10" stroke-width="2"/>
    <path id="Path-4" data-name="Path" d="M-.1,20.517S1.061,10.009-11.514,5.767C-16.231,3.092-17.439,0-17.439,0l-3.392,7.525" transform="translate(59.904 39)" fill="none" stroke="#3585bc" stroke-linecap="round" stroke-miterlimit="10" stroke-width="2"/>
    <path id="Path-5" data-name="Path" d="M8.5,0,.667,13.35" transform="translate(30.572 46.525)" fill="none" stroke="#3585bc" stroke-linecap="round" stroke-miterlimit="10" stroke-width="2"/>
  </g>
</svg>
