<svg xmlns="http://www.w3.org/2000/svg" width="156.255" height="133.157" viewBox="0 0 156.255 133.157">
  <g id="icon" transform="translate(2.344 2.755)">
    <path id="Rectangle" d="M102.965,53.514,98.618,67.769,35,71.024a34.689,34.689,0,0,1-35-35l0-.635Q.128,22.04,10.752,11.416S21.345.823,35.741.288,71.165.21,71.165.21L92.858,10.9Z" transform="translate(50.706 0.073) rotate(45)" fill="#3585bc" stroke="#ffec00" stroke-miterlimit="10" stroke-width="4"/>
    <path id="Rectangle_Copy_10" data-name="Rectangle Copy 10" d="M35.805,71.257a36.261,36.261,0,0,1-35.8-35.8L0,34.82Q-.081,21.367,10.459,10.827S20.969.317,35.466,0c-.082,14.231.263,53.365.263,53.365l7.753.155,5.821,9-6.091,6.091Z" transform="translate(151.051 50.774) rotate(135)" fill="#44c6b0" stroke="#ffec00" stroke-miterlimit="10" stroke-width="4"/>
    <path id="Rectangle_Copy_3" data-name="Rectangle Copy 3" d="M0,.255-18.205,0a8.757,8.757,0,0,0-8.869,8.869,9.147,9.147,0,0,0,9.03,9.03l10.368.093c.593.005,7.653.055,7.653.055" transform="translate(75.167 25.525) rotate(-45)" fill="#44c6b0" stroke="#ffec00" stroke-miterlimit="10" stroke-width="4"/>
    <path id="Rectangle_Copy_7" data-name="Rectangle Copy 7" d="M0,.169S17.431.194,17.826.192L48.367,0a8.75,8.75,0,0,1,8.828,8.828,9.019,9.019,0,0,1-8.939,8.939l-31.726.2" transform="translate(88.409 37.803) rotate(45)" fill="#3585bc" stroke="#ffec00" stroke-linecap="round" stroke-miterlimit="10" stroke-width="4"/>
    <path id="Rectangle_Copy_8" data-name="Rectangle Copy 8" d="M.111.2,31.837,0a8.75,8.75,0,0,1,8.828,8.828,9.019,9.019,0,0,1-8.939,8.939L0,17.966" transform="translate(87.472 61.51) rotate(45)" fill="#3585bc" stroke="#ffec00" stroke-linecap="round" stroke-miterlimit="10" stroke-width="4"/>
    <path id="Rectangle_Copy_9" data-name="Rectangle Copy 9" d="M0,.2,31.726,0a8.75,8.75,0,0,1,8.828,8.828,9.019,9.019,0,0,1-8.939,8.939" transform="translate(75.419 74.199) rotate(45)" fill="#3585bc" stroke="#ffec00" stroke-linecap="round" stroke-miterlimit="10" stroke-width="4"/>
    <path id="Rectangle_Copy_11" data-name="Rectangle Copy 11" d="M-.056,9.07A9,9,0,0,0-8.995.131L-21.051.056a8.773,8.773,0,0,0-8.828,8.828h0a9,9,0,0,0,8.939,8.939l12.056.076A8.773,8.773,0,0,0-.056,9.07Z" transform="translate(43.297 56.512) rotate(-45)" fill="#44c6b0" stroke="#ffec00" stroke-miterlimit="10" stroke-width="4"/>
    <path id="Rectangle_Copy_4" data-name="Rectangle Copy 4" d="M-.056,9.07A9,9,0,0,0-8.995.131L-21.051.056a8.773,8.773,0,0,0-8.828,8.828h0a9,9,0,0,0,8.939,8.939l12.056.076A8.773,8.773,0,0,0-.056,9.07Z" transform="translate(56.519 68.569) rotate(-45)" fill="#44c6b0" stroke="#ffec00" stroke-miterlimit="10" stroke-width="4"/>
    <path id="Rectangle_Copy_5" data-name="Rectangle Copy 5" d="M-.056,9.07A9,9,0,0,0-8.995.131L-21.051.056a8.773,8.773,0,0,0-8.828,8.828h0a9,9,0,0,0,8.939,8.939l12.056.076A8.773,8.773,0,0,0-.056,9.07Z" transform="translate(68.65 81.81) rotate(-45)" fill="#44c6b0" stroke="#ffec00" stroke-miterlimit="10" stroke-width="4"/>
    <path id="Rectangle_Copy_6" data-name="Rectangle Copy 6" d="M-.056,9.07A9,9,0,0,0-8.995.131L-21.051.056a8.773,8.773,0,0,0-8.828,8.828h0a9,9,0,0,0,8.939,8.939l12.056.076A8.773,8.773,0,0,0-.056,9.07Z" transform="translate(81.42 93.79) rotate(-45)" fill="#44c6b0" stroke="#ffec00" stroke-miterlimit="10" stroke-width="4"/>
  </g>
</svg>
