<svg xmlns="http://www.w3.org/2000/svg" width="74.751" height="49.834" viewBox="0 0 74.751 49.834">
  <g id="india" transform="translate(-0.125 -0.125)">
    <rect id="_x35_3" width="74.751" height="49.834" transform="translate(0.125 0.125)" fill="#f93"/>
    <rect id="_x35_2" width="74.751" height="16.611" transform="translate(0.125 16.736)" fill="#fff"/>
    <rect id="_x35_1" width="74.751" height="16.611" transform="translate(0.125 33.347)" fill="#128807"/>
    <circle id="_x35_0" cx="6.645" cy="6.645" r="6.645" transform="translate(30.855 18.397)" fill="#008"/>
    <circle id="_x34_9" cx="5.814" cy="5.814" r="5.814" transform="translate(31.686 19.228)" fill="#fff"/>
    <circle id="_x34_8" cx="1.163" cy="1.163" r="1.163" transform="translate(36.337 23.879)" fill="#008"/>
    <circle id="_x34_7" cx="0.291" cy="0.291" r="0.291" transform="translate(42.974 25.51)" fill="#008"/>
    <path id="_x34_6" d="M.2,5.15.4,1.661.2,0,0,1.661Z" transform="translate(37.301 25.706)" fill="#008"/>
    <circle id="_x34_5" cx="0.291" cy="0.291" r="0.291" transform="translate(42.581 26.976)" fill="#008"/>
    <path id="_x34_4" d="M0,4.974,1.1,1.656,1.333,0,.71,1.553Z" transform="translate(35.995 25.683)" fill="#008"/>
    <circle id="_x34_3" cx="0.291" cy="0.291" r="0.291" transform="translate(41.822 28.29)" fill="#008"/>
    <path id="_x34_2" d="M0,4.46,1.917,1.538,2.575,0l-1,1.339Z" transform="translate(34.593 25.617)" fill="#008"/>
    <circle id="_x34_1" cx="0.291" cy="0.291" r="0.291" transform="translate(40.749 29.363)" fill="#008"/>
    <path id="_x34_0" d="M0,3.641,2.608,1.316,3.641,0,2.325,1.034Z" transform="translate(33.389 25.511)" fill="#008"/>
    <circle id="_x33_9" cx="0.291" cy="0.291" r="0.291" transform="translate(39.434 30.122)" fill="#008"/>
    <path id="_x33_8" d="M0,2.575,3.121,1,4.46,0,2.921.658Z" transform="translate(32.465 25.374)" fill="#008"/>
    <circle id="_x33_7" cx="0.291" cy="0.291" r="0.291" transform="translate(37.968 30.515)" fill="#008"/>
    <path id="_x33_6" d="M0,1.333,3.421.622,4.974,0,3.318.237Z" transform="translate(31.884 25.213)" fill="#008"/>
    <circle id="_x33_5" cx="0.291" cy="0.291" r="0.291" transform="translate(36.45 30.515)" fill="#008"/>
    <path id="_x33_4" d="M0,.2,3.488.4,5.15.2,3.488,0Z" transform="translate(31.686 24.842)" fill="#008"/>
    <circle id="_x33_3" cx="0.291" cy="0.291" r="0.291" transform="translate(34.984 30.122)" fill="#008"/>
    <path id="_x33_2" d="M0,0,3.318,1.1l1.656.237L3.421.71Z" transform="translate(31.884 23.537)" fill="#008"/>
    <circle id="_x33_1" cx="0.291" cy="0.291" r="0.291" transform="translate(33.67 29.363)" fill="#008"/>
    <path id="_x33_0" d="M0,0,2.921,1.917l1.538.658-1.339-1Z" transform="translate(32.465 22.134)" fill="#008"/>
    <circle id="_x32_9" cx="0.291" cy="0.291" r="0.291" transform="translate(32.597 28.29)" fill="#008"/>
    <path id="_x32_8" d="M0,0,2.326,2.608,3.641,3.641,2.608,2.325Z" transform="translate(33.389 20.93)" fill="#008"/>
    <circle id="_x32_7" cx="0.291" cy="0.291" r="0.291" transform="translate(31.838 26.976)" fill="#008"/>
    <path id="_x32_6" d="M0,0,1.572,3.121l1,1.339L1.917,2.921Z" transform="translate(34.593 20.007)" fill="#008"/>
    <circle id="_x32_5" cx="0.291" cy="0.291" r="0.291" transform="translate(31.445 25.51)" fill="#008"/>
    <path id="_x32_4" d="M0,0,.71,3.421l.622,1.553L1.1,3.318Z" transform="translate(35.995 19.426)" fill="#008"/>
    <circle id="_x32_3" cx="0.291" cy="0.291" r="0.291" transform="translate(31.445 23.992)" fill="#008"/>
    <path id="_x32_2_1_" d="M.2,0,0,3.488.2,5.15.4,3.488Z" transform="translate(37.301 19.227)" fill="#008"/>
    <circle id="_x32_2" cx="0.291" cy="0.291" r="0.291" transform="translate(31.838 22.526)" fill="#008"/>
    <path id="_x32_1" d="M1.333,0,.237,3.318,0,4.974.622,3.421Z" transform="translate(37.672 19.426)" fill="#008"/>
    <circle id="_x32_0" cx="0.291" cy="0.291" r="0.291" transform="translate(32.597 21.211)" fill="#008"/>
    <path id="_x31_9" d="M2.575,0,.658,2.921,0,4.46,1,3.121Z" transform="translate(37.832 20.007)" fill="#008"/>
    <circle id="_x31_8" cx="0.291" cy="0.291" r="0.291" transform="translate(33.67 20.138)" fill="#008"/>
    <path id="_x31_7" d="M3.641,0,1.034,2.326,0,3.641,1.316,2.608Z" transform="translate(37.97 20.93)" fill="#008"/>
    <circle id="_x31_6" cx="0.291" cy="0.291" r="0.291" transform="translate(34.984 19.379)" fill="#008"/>
    <path id="_x31_5" d="M4.459,0,1.339,1.572,0,2.575l1.538-.658Z" transform="translate(38.076 22.134)" fill="#008"/>
    <circle id="_x31_4" cx="0.291" cy="0.291" r="0.291" transform="translate(36.45 18.986)" fill="#008"/>
    <path id="_x31_3" d="M4.974,0,1.553.71,0,1.333,1.656,1.1Z" transform="translate(38.142 23.537)" fill="#008"/>
    <circle id="_x31_2" cx="0.291" cy="0.291" r="0.291" transform="translate(37.968 18.986)" fill="#008"/>
    <path id="_x31_1" d="M5.15.2,1.661,0,0,.2,1.661.4Z" transform="translate(38.165 24.842)" fill="#008"/>
    <circle id="_x31_0" cx="0.291" cy="0.291" r="0.291" transform="translate(39.434 19.379)" fill="#008"/>
    <path id="_x39_" d="M4.974,1.333,1.656.237,0,0,1.553.622Z" transform="translate(38.142 25.213)" fill="#008"/>
    <circle id="_x38_" cx="0.291" cy="0.291" r="0.291" transform="translate(40.749 20.138)" fill="#008"/>
    <path id="_x37_" d="M4.46,2.575,1.538.658,0,0,1.339,1Z" transform="translate(38.075 25.373)" fill="#008"/>
    <circle id="_x36_" cx="0.291" cy="0.291" r="0.291" transform="translate(41.822 21.211)" fill="#008"/>
    <path id="_x35_" d="M3.641,3.641,1.316,1.034,0,0,1.034,1.316Z" transform="translate(37.97 25.511)" fill="#008"/>
    <circle id="_x34_" cx="0.291" cy="0.291" r="0.291" transform="translate(42.581 22.526)" fill="#008"/>
    <path id="_x33_" d="M2.575,4.46,1,1.339,0,0,.658,1.538Z" transform="translate(37.832 25.617)" fill="#008"/>
    <circle id="_x32_" cx="0.291" cy="0.291" r="0.291" transform="translate(42.974 23.992)" fill="#008"/>
    <path id="_x31_" d="M1.333,4.974.622,1.553,0,0,.237,1.656Z" transform="translate(37.672 25.683)" fill="#008"/>
  </g>
</svg>
