<svg xmlns="http://www.w3.org/2000/svg" width="47.955" height="64.26" viewBox="0 0 47.955 64.26">
  <g id="ivf_icon" data-name="ivf icon" transform="translate(0.543 0.504)">
    <path id="Stroke_134" data-name="Stroke 134" d="M0,14.183,13.934,0" transform="translate(25.256 1.395)" fill="none" stroke="#3585bc" stroke-linecap="round" stroke-miterlimit="10" stroke-width="2"/>
    <path id="Stroke_136" data-name="Stroke 136" d="M0,0,12.966.777a.22.22,0,0,1,.206.209l.762,13.2" transform="translate(26.083 0.554)" fill="none" stroke="#3585bc" stroke-linecap="round" stroke-miterlimit="10" stroke-width="2"/>
    <path id="Stroke_138" data-name="Stroke 138" d="M25.23,25.681a14.6,14.6,0,0,1-20.9,0,15.234,15.234,0,0,1,0-21.275,14.6,14.6,0,0,1,20.9,0A15.234,15.234,0,0,1,25.23,25.681Z" transform="translate(0.457 11.609)" fill="none" stroke="#3585bc" stroke-linecap="round" stroke-miterlimit="10" stroke-width="2"/>
    <path id="Stroke_140" data-name="Stroke 140" d="M13.419,0,0,13.418" transform="translate(6.488 47.704)" fill="none" stroke="#44c6b0" stroke-linecap="round" stroke-miterlimit="10" stroke-width="2"/>
    <path id="Stroke_142" data-name="Stroke 142" d="M0,0,9.759,9.759" transform="translate(5.268 52.583)" fill="none" stroke="#44c6b0" stroke-linecap="round" stroke-miterlimit="10" stroke-width="2"/>
    <path id="Stroke_144" data-name="Stroke 144" d="M4.548,4.548a15.526,15.526,0,1,1,0,21.957A15.526,15.526,0,0,1,4.548,4.548Z" transform="translate(15.359 21.199)" fill="none" stroke="#44c6b0" stroke-linecap="round" stroke-miterlimit="10" stroke-width="2"/>
  </g>
</svg>
