<svg id="pin" xmlns="http://www.w3.org/2000/svg" width="350.5" height="72" viewBox="0 0 350.5 72">
  <path id="Combined_Shape" data-name="Combined Shape" d="M16.25,40a.454.454,0,0,1-.34-.153c-.277-.306-.712-.759-1.263-1.334A115.944,115.944,0,0,1,5.786,28.382C1.947,23.289,0,19.153,0,16.088A15.9,15.9,0,0,1,4.759,4.712a16.367,16.367,0,0,1,22.981,0A15.9,15.9,0,0,1,32.5,16.088c0,3.065-1.947,7.2-5.786,12.295a115.944,115.944,0,0,1-8.861,10.131c-.551.574-.986,1.028-1.263,1.334A.454.454,0,0,1,16.25,40ZM15.9,9.167a6.667,6.667,0,1,0,6.734,6.667A6.708,6.708,0,0,0,15.9,9.167Z" transform="translate(318 32)" fill="#4a4a4a"/>
  <path id="Combined_Shape_Copy" data-name="Combined Shape Copy" d="M16.25,40a.454.454,0,0,1-.34-.153c-.277-.306-.712-.759-1.263-1.334A115.944,115.944,0,0,1,5.786,28.382C1.947,23.289,0,19.153,0,16.088A15.9,15.9,0,0,1,4.759,4.712a16.367,16.367,0,0,1,22.981,0A15.9,15.9,0,0,1,32.5,16.088c0,3.065-1.947,7.2-5.786,12.295a115.944,115.944,0,0,1-8.861,10.131c-.551.574-.986,1.028-1.263,1.334A.454.454,0,0,1,16.25,40ZM15.9,9.167a6.667,6.667,0,1,0,6.734,6.667A6.708,6.708,0,0,0,15.9,9.167Z" transform="translate(267 20)" fill="#4a4a4a"/>
  <path id="Combined_Shape_Copy_2" data-name="Combined Shape Copy 2" d="M16.25,40a.454.454,0,0,1-.34-.153c-.277-.306-.712-.759-1.263-1.334A115.944,115.944,0,0,1,5.786,28.382C1.947,23.289,0,19.153,0,16.088A15.9,15.9,0,0,1,4.759,4.712a16.367,16.367,0,0,1,22.981,0A15.9,15.9,0,0,1,32.5,16.088c0,3.065-1.947,7.2-5.786,12.295a115.944,115.944,0,0,1-8.861,10.131c-.551.574-.986,1.028-1.263,1.334A.454.454,0,0,1,16.25,40ZM15.9,9.167a6.667,6.667,0,1,0,6.734,6.667A6.708,6.708,0,0,0,15.9,9.167Z" transform="translate(0 0)" fill="#4a4a4a"/>
  <path id="Stroke_385_Copy" data-name="Stroke 385 Copy" d="M13.468,6.667a6.7,6.7,0,0,1-6.734,6.667A6.667,6.667,0,1,1,6.733,0,6.7,6.7,0,0,1,13.468,6.667Z" transform="translate(327.167 41.167)" fill="#ffec00"/>
  <path id="Stroke_385_Copy_2" data-name="Stroke 385 Copy 2" d="M13.468,6.667a6.7,6.7,0,0,1-6.734,6.667A6.667,6.667,0,1,1,6.733,0,6.7,6.7,0,0,1,13.468,6.667Z" transform="translate(276.167 29.167)" fill="#ffec00"/>
  <path id="Stroke_385_Copy_3" data-name="Stroke 385 Copy 3" d="M13.468,6.667a6.7,6.7,0,0,1-6.734,6.667A6.667,6.667,0,1,1,6.733,0,6.7,6.7,0,0,1,13.468,6.667Z" transform="translate(9.167 9.167)" fill="#ffec00"/>
</svg>
