<svg id="usa" xmlns="http://www.w3.org/2000/svg" width="75" height="40" viewBox="0 0 75 40">
  <rect id="_x35_9" width="75" height="40" fill="#fff"/>
  <rect id="_x35_8" width="75" height="3" fill="#b22234"/>
  <rect id="_x35_7" width="75" height="3" transform="translate(0 6)" fill="#b22234"/>
  <rect id="_x35_6" width="75" height="3" transform="translate(0 12)" fill="#b22234"/>
  <rect id="_x35_5" width="75" height="3" transform="translate(0 19)" fill="#b22234"/>
  <rect id="_x35_4" width="75" height="3" transform="translate(0 25)" fill="#b22234"/>
  <rect id="_x35_3" width="75" height="3" transform="translate(0 31)" fill="#b22234"/>
  <rect id="_x35_2" width="75" height="3" transform="translate(0 37)" fill="#b22234"/>
  <rect id="_x35_1" width="30" height="21" fill="#3c3b6e"/>
  <path id="_x35_0" d="M0,.764l.618.472L.382,2,1,1.528,1.618,2l-.236-.764L2,.764H1.236L1,0,.764.764Z" transform="translate(2 1)" fill="#fff"/>
  <path id="_x34_9" d="M0,.764l.618.472L.382,2,1,1.528,1.618,2l-.236-.764L2,.764H1.236L1,0,.764.764Z" transform="translate(7 1)" fill="#fff"/>
  <path id="_x34_8" d="M0,.764l.618.472L.382,2,1,1.528,1.618,2l-.236-.764L2,.764H1.236L1,0,.764.764Z" transform="translate(12 1)" fill="#fff"/>
  <path id="_x34_7" d="M0,.764l.618.472L.382,2,1,1.528,1.618,2l-.236-.764L2,.764H1.236L1,0,.764.764Z" transform="translate(16 1)" fill="#fff"/>
  <path id="_x34_6" d="M0,.764l.618.472L.382,2,1,1.528,1.618,2l-.236-.764L2,.764H1.236L1,0,.764.764Z" transform="translate(21 1)" fill="#fff"/>
  <path id="_x34_5" d="M0,.764l.618.472L.382,2,1,1.528,1.618,2l-.236-.764L2,.764H1.236L1,0,.764.764Z" transform="translate(26 1)" fill="#fff"/>
  <path id="_x34_4" d="M0,.764l.618.472L.382,2,1,1.528,1.618,2l-.236-.764L2,.764H1.236L1,0,.764.764Z" transform="translate(4 3)" fill="#fff"/>
  <path id="_x34_3" d="M0,.764l.618.472L.382,2,1,1.528,1.618,2l-.236-.764L2,.764H1.236L1,0,.764.764Z" transform="translate(9 3)" fill="#fff"/>
  <path id="_x34_2" d="M0,.764l.618.472L.382,2,1,1.528,1.618,2l-.236-.764L2,.764H1.236L1,0,.764.764Z" transform="translate(14 3)" fill="#fff"/>
  <path id="_x34_1" d="M0,.764l.618.472L.382,2,1,1.528,1.618,2l-.236-.764L2,.764H1.236L1,0,.764.764Z" transform="translate(19 3)" fill="#fff"/>
  <path id="_x34_0" d="M0,.764l.618.472L.382,2,1,1.528,1.618,2l-.236-.764L2,.764H1.236L1,0,.764.764Z" transform="translate(24 3)" fill="#fff"/>
  <path id="_x33_9" d="M0,.764l.618.472L.382,2,1,1.528,1.618,2l-.236-.764L2,.764H1.236L1,0,.764.764Z" transform="translate(2 5)" fill="#fff"/>
  <path id="_x33_8" d="M0,.764l.618.472L.382,2,1,1.528,1.618,2l-.236-.764L2,.764H1.236L1,0,.764.764Z" transform="translate(7 5)" fill="#fff"/>
  <path id="_x33_7" d="M0,.764l.618.472L.382,2,1,1.528,1.618,2l-.236-.764L2,.764H1.236L1,0,.764.764Z" transform="translate(12 5)" fill="#fff"/>
  <path id="_x33_6" d="M0,.764l.618.472L.382,2,1,1.528,1.618,2l-.236-.764L2,.764H1.236L1,0,.764.764Z" transform="translate(16 5)" fill="#fff"/>
  <path id="_x33_5" d="M0,.764l.618.472L.382,2,1,1.528,1.618,2l-.236-.764L2,.764H1.236L1,0,.764.764Z" transform="translate(21 5)" fill="#fff"/>
  <path id="_x33_4" d="M0,.764l.618.472L.382,2,1,1.528,1.618,2l-.236-.764L2,.764H1.236L1,0,.764.764Z" transform="translate(26 5)" fill="#fff"/>
  <path id="_x33_3" d="M0,.764l.618.472L.382,2,1,1.528,1.618,2l-.236-.764L2,.764H1.236L1,0,.764.764Z" transform="translate(4 8)" fill="#fff"/>
  <path id="_x33_2" d="M0,.764l.618.472L.382,2,1,1.528,1.618,2l-.236-.764L2,.764H1.236L1,0,.764.764Z" transform="translate(9 8)" fill="#fff"/>
  <path id="_x33_1" d="M0,.764l.618.472L.382,2,1,1.528,1.618,2l-.236-.764L2,.764H1.236L1,0,.764.764Z" transform="translate(14 8)" fill="#fff"/>
  <path id="_x33_0" d="M0,.764l.618.472L.382,2,1,1.528,1.618,2l-.236-.764L2,.764H1.236L1,0,.764.764Z" transform="translate(19 8)" fill="#fff"/>
  <path id="_x32_9" d="M0,.764l.618.472L.382,2,1,1.528,1.618,2l-.236-.764L2,.764H1.236L1,0,.764.764Z" transform="translate(24 8)" fill="#fff"/>
  <path id="_x32_8" d="M0,.764l.618.472L.382,2,1,1.528,1.618,2l-.236-.764L2,.764H1.236L1,0,.764.764Z" transform="translate(2 10)" fill="#fff"/>
  <path id="_x32_7" d="M0,.764l.618.472L.382,2,1,1.528,1.618,2l-.236-.764L2,.764H1.236L1,0,.764.764Z" transform="translate(7 10)" fill="#fff"/>
  <path id="_x32_6" d="M0,.764l.618.472L.382,2,1,1.528,1.618,2l-.236-.764L2,.764H1.236L1,0,.764.764Z" transform="translate(12 10)" fill="#fff"/>
  <path id="_x32_5" d="M0,.764l.618.472L.382,2,1,1.528,1.618,2l-.236-.764L2,.764H1.236L1,0,.764.764Z" transform="translate(17 10)" fill="#fff"/>
  <path id="_x32_4" d="M0,.764l.618.472L.382,2,1,1.528,1.618,2l-.236-.764L2,.764H1.236L1,0,.764.764Z" transform="translate(22 10)" fill="#fff"/>
  <path id="_x32_3" d="M0,.764l.618.472L.382,2,1,1.528,1.618,2l-.236-.764L2,.764H1.236L1,0,.764.764Z" transform="translate(27 10)" fill="#fff"/>
  <path id="_x32_2" d="M0,.764l.618.472L.382,2,1,1.528,1.618,2l-.236-.764L2,.764H1.236L1,0,.764.764Z" transform="translate(2 14)" fill="#fff"/>
  <path id="_x32_1" d="M0,.764l.618.472L.382,2,1,1.528,1.618,2l-.236-.764L2,.764H1.236L1,0,.764.764Z" transform="translate(7 14)" fill="#fff"/>
  <path id="_x32_0" d="M0,.764l.618.472L.382,2,1,1.528,1.618,2l-.236-.764L2,.764H1.236L1,0,.764.764Z" transform="translate(12 14)" fill="#fff"/>
  <path id="_x31_9" d="M0,.764l.618.472L.382,2,1,1.528,1.618,2l-.236-.764L2,.764H1.236L1,0,.764.764Z" transform="translate(17 14)" fill="#fff"/>
  <path id="_x31_8" d="M0,.764l.618.472L.382,2,1,1.528,1.618,2l-.236-.764L2,.764H1.236L1,0,.764.764Z" transform="translate(22 14)" fill="#fff"/>
  <path id="_x31_7" d="M0,.764l.618.472L.382,2,1,1.528,1.618,2l-.236-.764L2,.764H1.236L1,0,.764.764Z" transform="translate(27 14)" fill="#fff"/>
  <path id="_x31_6" d="M0,.764l.618.472L.382,2,1,1.528,1.618,2l-.236-.764L2,.764H1.236L1,0,.764.764Z" transform="translate(2 18)" fill="#fff"/>
  <path id="_x31_5" d="M0,.764l.618.472L.382,2,1,1.528,1.618,2l-.236-.764L2,.764H1.236L1,0,.764.764Z" transform="translate(7 18)" fill="#fff"/>
  <path id="_x31_4" d="M0,.764l.618.472L.382,2,1,1.528,1.618,2l-.236-.764L2,.764H1.236L1,0,.764.764Z" transform="translate(12 18)" fill="#fff"/>
  <path id="_x31_3" d="M0,.764l.618.472L.382,2,1,1.528,1.618,2l-.236-.764L2,.764H1.236L1,0,.764.764Z" transform="translate(17 18)" fill="#fff"/>
  <path id="_x31_2" d="M0,.764l.618.472L.382,2,1,1.528,1.618,2l-.236-.764L2,.764H1.236L1,0,.764.764Z" transform="translate(22 18)" fill="#fff"/>
  <path id="_x31_1" d="M0,.764l.618.472L.382,2,1,1.528,1.618,2l-.236-.764L2,.764H1.236L1,0,.764.764Z" transform="translate(26 18)" fill="#fff"/>
  <path id="_x31_0" d="M0,.764l.618.472L.382,2,1,1.528,1.618,2l-.236-.764L2,.764H1.236L1,0,.764.764Z" transform="translate(4 12)" fill="#fff"/>
  <path id="_x39_" d="M0,.764l.618.472L.382,2,1,1.528,1.618,2l-.236-.764L2,.764H1.236L1,0,.764.764Z" transform="translate(9 12)" fill="#fff"/>
  <path id="_x38_" d="M0,.764l.618.472L.382,2,1,1.528,1.618,2l-.236-.764L2,.764H1.236L1,0,.764.764Z" transform="translate(14 12)" fill="#fff"/>
  <path id="_x37_" d="M0,.764l.618.472L.382,2,1,1.528,1.618,2l-.236-.764L2,.764H1.236L1,0,.764.764Z" transform="translate(19 12)" fill="#fff"/>
  <path id="_x36_" d="M0,.764l.618.472L.382,2,1,1.528,1.618,2l-.236-.764L2,.764H1.236L1,0,.764.764Z" transform="translate(24 12)" fill="#fff"/>
  <path id="_x35_" d="M0,.764l.618.472L.382,2,1,1.528,1.618,2l-.236-.764L2,.764H1.236L1,0,.764.764Z" transform="translate(4 16)" fill="#fff"/>
  <path id="_x34_" d="M0,.764l.618.472L.382,2,1,1.528,1.618,2l-.236-.764L2,.764H1.236L1,0,.764.764Z" transform="translate(9 16)" fill="#fff"/>
  <path id="_x33_" d="M0,.764l.618.472L.382,2,1,1.528,1.618,2l-.236-.764L2,.764H1.236L1,0,.764.764Z" transform="translate(14 16)" fill="#fff"/>
  <path id="_x32_" d="M0,.764l.618.472L.382,2,1,1.528,1.618,2l-.236-.764L2,.764H1.236L1,0,.764.764Z" transform="translate(19 16)" fill="#fff"/>
  <path id="_x31_" d="M0,.764l.618.472L.382,2,1,1.528,1.618,2l-.236-.764L2,.764H1.236L1,0,.764.764Z" transform="translate(24 16)" fill="#fff"/>
</svg>
