<svg xmlns="http://www.w3.org/2000/svg" width="64.533" height="44.271" viewBox="0 0 64.533 44.271">
  <g id="visual_icon" data-name="visual icon" transform="translate(0.755 0.68)">
    <path id="Stroke_1685" data-name="Stroke 1685" d="M24.53,9.923c-.175,5.628-2.759,11.3-12.262,11.3-8.277,0-12.462-5.673-12.262-11.3C.313,1.291,4.911.024,12.268,0,20.545-.027,24.734,3.354,24.53,9.923Z" transform="translate(2.349 21.369)" fill="none" stroke="#44c6b0" stroke-linejoin="round" stroke-miterlimit="10" stroke-width="2"/>
    <path id="Stroke_1687" data-name="Stroke 1687" d="M26.641,14.86C26.845,8.291,25.414-.016,14.375,0-1.408.021-1.408.021,1.456,13.056l.689,3" transform="translate(0.238 16.432)" fill="none" stroke="#3585bc" stroke-linejoin="round" stroke-miterlimit="10" stroke-width="2"/>
    <path id="Stroke_1689" data-name="Stroke 1689" d="M.007,9.923c.175,5.628,2.759,11.3,12.262,11.3,8.277,0,12.462-5.673,12.262-11.3C24.224,1.291,19.626.025,12.269,0,3.992-.027-.2,3.354.007,9.923Z" transform="translate(36.136 21.369)" fill="none" stroke="#44c6b0" stroke-linejoin="round" stroke-miterlimit="10" stroke-width="2"/>
    <path id="Stroke_1691" data-name="Stroke 1691" d="M.018,14.86C-.187,8.291,1.244-.016,12.283,0,28.067.021,28.067.021,25.2,13.056l-.748,3.534" transform="translate(36.125 16.432)" fill="none" stroke="#3585bc" stroke-linejoin="round" stroke-miterlimit="10" stroke-width="2"/>
    <path id="Stroke_1693" data-name="Stroke 1693" d="M9.809,0H0" transform="translate(26.14 32.339)" fill="none" stroke="#3585bc" stroke-linejoin="round" stroke-miterlimit="10" stroke-width="2"/>
    <path id="Stroke_1695" data-name="Stroke 1695" d="M0,0H9.809" transform="translate(26.14 27.445)" fill="none" stroke="#3585bc" stroke-linejoin="round" stroke-miterlimit="10" stroke-width="2"/>
    <path id="Stroke_1697" data-name="Stroke 1697" d="M6.726,16.343l7.795-9.829c2.115-2.512,3.8-2.889,5.917-.666a2.16,2.16,0,0,0,3.013-.5c.863-1.088.509-1.776-.448-2.852A6.664,6.664,0,0,0,17.866,0,7.157,7.157,0,0,0,12.63,2.929C9.108,7.25,3.522,13.971,0,18.293" transform="translate(0.75 0.321)" fill="none" stroke="#3585bc" stroke-linejoin="round" stroke-miterlimit="10" stroke-width="2"/>
    <path id="Stroke_1699" data-name="Stroke 1699" d="M17.07,16.2,9.42,6.514C7.3,4,5.62,3.625,3.5,5.848a2.16,2.16,0,0,1-3.013-.5C-.371,4.254-.02,3.568.939,2.491A6.657,6.657,0,0,1,6.075,0,7.155,7.155,0,0,1,11.31,2.929c3.523,4.321,8.527,10.525,12.049,14.845" transform="translate(38.516 0.321)" fill="none" stroke="#3585bc" stroke-linejoin="round" stroke-miterlimit="10" stroke-width="2"/>
  </g>
</svg>
